<svg width="17" height="16" viewBox="0 0 17 16" fill="none" xmlns="http://www.w3.org/2000/svg">
<path d="M7.32129 9.97998C7.83819 9.97998 8.27129 10.3838 8.27148 10.8872V14.5132C8.27125 15.0165 7.83817 15.4204 7.32129 15.4204H1.84863C1.33176 15.4203 0.900627 15.0163 0.900391 14.5132V10.8872C0.900586 10.384 1.33173 9.9801 1.84863 9.97998H7.32129ZM15.4219 6.58057C15.9389 6.58067 16.3701 6.98444 16.3701 7.48779V14.5132C16.3698 15.0163 15.9387 15.4203 15.4219 15.4204H9.94922C9.43226 15.4204 9.00027 15.0164 9 14.5132V7.48877C9 6.98534 9.4321 6.58057 9.94922 6.58057H15.4219ZM1.84863 10.6372C1.69114 10.6373 1.58123 10.7491 1.58105 10.8872V14.5132C1.58127 14.6513 1.69117 14.7631 1.84863 14.7632H7.32129C7.47912 14.7632 7.58962 14.6511 7.58984 14.5132V10.8872C7.58966 10.7492 7.47914 10.6372 7.32129 10.6372H1.84863ZM9.9375 7.23877C9.78589 7.244 9.68165 7.35279 9.68164 7.48779V14.5132C9.68189 14.6513 9.79165 14.7632 9.94922 14.7632H15.4219C15.5793 14.7631 15.6892 14.6513 15.6895 14.5132V7.48877C15.6895 7.35045 15.5795 7.23886 15.4219 7.23877H9.9375ZM7.32129 0.57959C7.83831 0.57959 8.27148 0.983294 8.27148 1.48682V8.51123C8.27148 9.01455 7.83851 9.42041 7.32129 9.42041H1.84863C1.33141 9.42029 0.900391 9.01439 0.900391 8.51123V1.48682C0.900391 0.983464 1.33161 0.57971 1.84863 0.57959H7.32129ZM1.84863 1.23779C1.69077 1.2379 1.58105 1.34874 1.58105 1.48682V8.51123C1.58105 8.64997 1.69147 8.76307 1.84863 8.76318H7.32129C7.47881 8.76318 7.58984 8.64982 7.58984 8.51123V1.48682C7.58984 1.34889 7.4795 1.23779 7.32129 1.23779H1.84863ZM15.4219 0.57959C15.9389 0.579691 16.3701 0.983452 16.3701 1.48682V5.11475C16.3699 5.618 15.9387 6.0209 15.4219 6.021H9.94922C9.43235 6.021 9.00025 5.61806 9 5.11475V1.48682C9 0.983389 9.4321 0.57959 9.94922 0.57959H15.4219ZM9.94922 1.23779C9.79124 1.23779 9.68164 1.34867 9.68164 1.48682V5.11475C9.68187 5.25269 9.79141 5.36377 9.94922 5.36377H15.4219C15.5796 5.36368 15.6892 5.25263 15.6895 5.11475V1.48682C15.6895 1.34872 15.5798 1.23788 15.4219 1.23779H9.94922Z" fill="#444444" stroke="#444444" stroke-width="0.2"/>
</svg>
